<svg width="240" height="240" viewBox="0 0 240 240" fill="none" xmlns="http://www.w3.org/2000/svg">
<circle cx="120" cy="120" r="120" fill="white"/>
<path fill-rule="evenodd" clip-rule="evenodd" d="M126.666 46.2983C109.623 48.0321 97.3496 51.1325 83.408 57.2262C52.3103 70.8188 29.694 95.9262 20.9102 126.609C19.2777 132.31 19.0252 134.502 19.001 143.19C18.9718 153.826 19.5701 156.963 22.6761 162.451C29.8267 175.083 52.5671 179.359 79.7322 173.179C90.5343 170.722 106.282 164.423 112.402 160.11C113.961 159.012 114.252 158.923 103.844 162.727C92.1247 167.011 77.5405 169.803 67.167 169.751L61.052 169.72L67.5136 168.254C73.4424 166.91 84.7987 162.563 84.0656 161.919C83.8937 161.769 81.2135 162.24 78.1082 162.967C73.8803 163.957 69.497 164.369 60.6455 164.609C47.2102 164.975 42.4967 164.227 38.7203 161.131C35.3254 158.35 35.1935 155.944 38.077 149.394C43.1186 137.941 54.8443 119.726 57.175 119.726C57.8127 119.726 58.9017 119.176 59.5949 118.504C60.5192 117.609 61.41 117.38 62.9341 117.647C66.3604 118.249 69.813 114.271 66.7576 113.242C65.4468 112.801 65.4389 112.245 66.722 110.76C67.5421 109.811 67.975 109.74 69.2617 110.344C72.9111 112.057 76.6476 108.634 73.9659 106.034C72.8833 104.984 72.9282 104.789 74.6321 103.177C76.328 101.571 76.552 101.519 77.7273 102.452C79.576 103.92 81.8889 103.685 83.2268 101.894C84.3152 100.437 84.3088 100.214 83.1363 98.6443C81.8839 96.9674 81.8896 96.9505 84.2503 95.2211C86.5739 93.5192 86.6431 93.5092 87.6066 94.7167C88.9931 96.4524 91.7909 96.2873 93.2116 94.3851C94.2843 92.9492 94.2864 92.6957 93.2395 91.2942C92.1404 89.8219 92.1818 89.7099 94.4055 88.1638C96.6856 86.5789 96.7234 86.5752 97.6905 87.8134C99.9421 90.6966 105.362 87.7609 103.482 84.6774C102.805 83.5687 102.89 83.1807 103.966 82.4656C105.655 81.3424 107.053 81.3268 107.053 82.4299C107.053 83.8064 109.234 84.1812 111.077 83.1226C112.275 82.433 112.759 81.5683 112.759 80.1148C112.759 78.5199 113.218 77.8367 114.855 76.9876C116.008 76.39 117.144 75.3702 117.378 74.7207C118.514 71.5816 155.699 60.6481 160.128 62.1504C162.254 62.8718 164.5 65.1706 166.255 68.4186L167.775 71.2343L167.365 68.1465C167.138 66.4483 166.474 64.4167 165.888 63.6321C164.295 61.4991 164.599 61.1343 166.599 62.7811C170.605 66.0835 173.079 76.2493 172.462 86.8767C172.082 93.4159 172.114 93.6349 173.099 91.266C175.461 85.5847 177.101 76.3725 176.72 70.9214C175.681 56.0555 166.267 48.9119 144.569 46.5248C139.11 45.9242 131.315 45.8259 126.666 46.2983ZM150.424 56.9133C152.816 57.3331 153.859 58.7454 152.689 59.9817C152.278 60.416 150.427 61.0948 148.576 61.4903C142.567 62.7742 129.674 66.6317 123.14 69.1C119.218 70.5823 116.159 71.3776 115.194 71.1648C114.332 70.9753 112.567 71.3 111.273 71.8869C109.054 72.8936 108.792 72.8936 106.642 71.8775C104.873 71.0422 104.037 70.9546 102.904 71.4864C101.068 72.3487 100.262 74.466 101.336 75.6023C102.605 76.9438 98.8737 78.9385 97.008 77.9161C95.2721 76.9651 92.5976 76.9713 91.5057 77.9293C90.443 78.8615 90.3859 81.3412 91.4137 81.8987C91.863 82.1421 91.2026 82.9054 89.809 83.7508C87.6729 85.0478 87.3206 85.0954 86.2208 84.2382C83.5271 82.1371 79.0147 85.1098 80.7007 87.8741C81.3625 88.9584 81.222 89.4446 79.8883 90.6898C78.2423 92.2277 76.3858 92.6939 76.3858 91.5695C76.3858 90.5696 73.4111 90.8468 71.9847 91.9793C70.4855 93.1694 70.3001 94.7399 71.5311 95.8199C72.1908 96.3986 71.9176 96.993 70.3179 98.4578C68.6048 100.026 68.1498 100.187 67.6484 99.4001C66.7976 98.0674 64.72 98.2219 63.1595 99.7349C62.0198 100.839 61.9542 101.292 62.6838 102.987C63.4298 104.722 63.3521 105.125 62.0312 106.358C60.8124 107.497 60.2896 107.626 59.2398 107.051C58.2748 106.522 57.4846 106.529 56.1124 107.077C54.1397 107.866 53.746 109.553 55.0404 111.675C55.6267 112.636 55.529 113.296 54.6197 114.513C53.9685 115.385 53.6069 116.676 53.8166 117.38C54.0562 118.184 53.45 119.617 52.1891 121.227C48.4205 126.039 43.5536 133.63 39.6332 140.811C34.1993 150.766 32.355 149.784 34.6172 138.142C37.04 125.674 44.7967 109.886 54.0955 98.496C69.5234 79.598 93.8008 65.2601 120.338 59.3748C131.23 56.9596 144.499 55.874 150.424 56.9133Z" fill="#013369"/>
<path d="M123.526 102.8H135.394L144.596 138.834H144.768V102.8H153.196V163H143.478L132.126 119.054H131.954V163H123.526V102.8Z" fill="#C70039"/>
<path d="M160.227 102.8H185.253V111.4H169.687V128.17H181.899V136.77H169.687V163H160.227V102.8Z" fill="#C70039"/>
<path d="M189.79 102.8H199.25V154.4H214.816V163H189.79V102.8Z" fill="#C70039"/>
</svg>
